<svg viewBox="0 0 362 95" fill="none" xmlns="http://www.w3.org/2000/svg">
<path d="M264.958 71.2856C241.703 54.1451 207.997 45 178.977 45C138.285 45 101.653 60.0502 73.9386 85.0816C71.7612 87.05 73.7122 89.7326 76.3251 88.1997C106.234 70.7979 143.215 60.3289 181.415 60.3289C207.178 60.3289 235.519 65.6592 261.579 76.7204C265.515 78.3926 268.808 74.1424 264.958 71.2856Z" fill="#FF9900"/>
<path d="M274.626 82.3468C271.664 86.1442 254.977 84.141 247.486 83.2526C245.205 82.9739 244.856 84.9597 246.912 86.3881C260.202 95.7422 282.011 93.0422 284.555 89.9068C287.098 86.7539 283.893 64.8928 271.403 54.4586C269.487 52.8561 267.658 53.7096 268.511 55.8348C271.316 62.8373 277.604 78.532 274.626 82.3468Z" fill="#FF9900"/>
<path d="M27.9489 94.3182C23.4943 94.3182 19.5246 93.5455 16.0398 92C12.5549 90.4242 9.79735 88.1061 7.76705 85.0455C5.76705 81.9545 4.76705 78.1061 4.76705 73.5C4.76705 69.6212 5.47917 66.3636 6.90341 63.7273C8.32765 61.0909 10.267 58.9697 12.7216 57.3636C15.1761 55.7576 17.964 54.5455 21.0852 53.7273C24.2367 52.9091 27.5398 52.3333 30.9943 52C35.0549 51.5758 38.3277 51.1818 40.8125 50.8182C43.2974 50.4242 45.1004 49.8485 46.2216 49.0909C47.3428 48.3333 47.9034 47.2121 47.9034 45.7273V45.4545C47.9034 42.5758 46.9943 40.3485 45.1761 38.7727C43.3883 37.197 40.8428 36.4091 37.5398 36.4091C34.0549 36.4091 31.2822 37.1818 29.2216 38.7273C27.161 40.2424 25.7973 42.1515 25.1307 44.4545L7.22159 43C8.13068 38.7576 9.91856 35.0909 12.5852 32C15.2519 28.8788 18.6913 26.4848 22.9034 24.8182C27.1458 23.1212 32.0549 22.2727 37.6307 22.2727C41.5095 22.2727 45.2216 22.7273 48.767 23.6364C52.3428 24.5455 55.5095 25.9545 58.267 27.8636C61.0549 29.7727 63.2519 32.2273 64.858 35.2273C66.464 38.197 67.267 41.7576 67.267 45.9091V93H48.9034V83.3182H48.358C47.2367 85.5 45.7367 87.4242 43.858 89.0909C41.9792 90.7273 39.7216 92.0152 37.0852 92.9545C34.4489 93.8636 31.4034 94.3182 27.9489 94.3182ZM33.4943 80.9545C36.3428 80.9545 38.858 80.3939 41.0398 79.2727C43.2216 78.1212 44.9337 76.5758 46.1761 74.6364C47.4186 72.697 48.0398 70.5 48.0398 68.0455V60.6364C47.4337 61.0303 46.6004 61.3939 45.5398 61.7273C44.5095 62.0303 43.3428 62.3182 42.0398 62.5909C40.7367 62.8333 39.4337 63.0606 38.1307 63.2727C36.8277 63.4545 35.6458 63.6212 34.5852 63.7727C32.3125 64.1061 30.3277 64.6364 28.6307 65.3636C26.9337 66.0909 25.6155 67.0758 24.6761 68.3182C23.7367 69.5303 23.267 71.0455 23.267 72.8636C23.267 75.5 24.2216 77.5152 26.1307 78.9091C28.0701 80.2727 30.5246 80.9545 33.4943 80.9545ZM82.2898 93V23.1818H101.062V35.3636H101.79C103.063 31.0303 105.199 27.7576 108.199 25.5455C111.199 23.303 114.653 22.1818 118.562 22.1818C119.532 22.1818 120.578 22.2424 121.699 22.3636C122.82 22.4848 123.805 22.6515 124.653 22.8636V40.0455C123.744 39.7727 122.487 39.5303 120.881 39.3182C119.275 39.1061 117.805 39 116.472 39C113.623 39 111.078 39.6212 108.835 40.8636C106.623 42.0758 104.866 43.7727 103.562 45.9545C102.29 48.1364 101.653 50.6515 101.653 53.5V93H82.2898ZM134.665 93V23.1818H153.438V35.3636H154.165C155.438 31.0303 157.574 27.7576 160.574 25.5455C163.574 23.303 167.028 22.1818 170.938 22.1818C171.907 22.1818 172.953 22.2424 174.074 22.3636C175.195 22.4848 176.18 22.6515 177.028 22.8636V40.0455C176.119 39.7727 174.862 39.5303 173.256 39.3182C171.65 39.1061 170.18 39 168.847 39C165.998 39 163.453 39.6212 161.21 40.8636C158.998 42.0758 157.241 43.7727 155.938 45.9545C154.665 48.1364 154.028 50.6515 154.028 53.5V93H134.665ZM215.335 94.3636C208.275 94.3636 202.169 92.8636 197.017 89.8636C191.896 86.8333 187.941 82.6212 185.153 77.2273C182.366 71.803 180.972 65.5152 180.972 58.3636C180.972 51.1515 182.366 44.8485 185.153 39.4545C187.941 34.0303 191.896 29.8182 197.017 26.8182C202.169 23.7879 208.275 22.2727 215.335 22.2727C222.396 22.2727 228.487 23.7879 233.608 26.8182C238.759 29.8182 242.729 34.0303 245.517 39.4545C248.305 44.8485 249.699 51.1515 249.699 58.3636C249.699 65.5152 248.305 71.803 245.517 77.2273C242.729 82.6212 238.759 86.8333 233.608 89.8636C228.487 92.8636 222.396 94.3636 215.335 94.3636ZM215.426 79.3636C218.638 79.3636 221.32 78.4545 223.472 76.6364C225.623 74.7879 227.244 72.2727 228.335 69.0909C229.456 65.9091 230.017 62.2879 230.017 58.2273C230.017 54.1667 229.456 50.5455 228.335 47.3636C227.244 44.1818 225.623 41.6667 223.472 39.8182C221.32 37.9697 218.638 37.0455 215.426 37.0455C212.184 37.0455 209.456 37.9697 207.244 39.8182C205.063 41.6667 203.411 44.1818 202.29 47.3636C201.199 50.5455 200.653 54.1667 200.653 58.2273C200.653 62.2879 201.199 65.9091 202.29 69.0909C203.411 72.2727 205.063 74.7879 207.244 76.6364C209.456 78.4545 212.184 79.3636 215.426 79.3636ZM274.312 93L255.312 23.1818H274.903L285.722 70.0909H286.358L297.631 23.1818H316.858L328.312 69.8182H328.903L339.54 23.1818H359.085L340.131 93H319.631L307.631 49.0909H306.767L294.767 93H274.312Z" fill="white"/>
<mask id="mask0_37_17" style="mask-type:alpha" maskUnits="userSpaceOnUse" x="78" y="33" width="223" height="74">
<rect x="260" y="47" width="41" height="60" fill="#D9D9D9"/>
<rect x="167" y="33" width="49" height="40" fill="#D9D9D9"/>
<rect x="78.5" y="50" width="37" height="52" fill="#D9D9D9"/>
</mask>
<g mask="url(#mask0_37_17)">
<path d="M264.958 71.2856C241.703 54.1451 207.997 45 178.977 45C138.285 45 101.653 60.0502 73.9386 85.0816C71.7612 87.05 73.7122 89.7326 76.3251 88.1997C106.234 70.7979 143.215 60.3289 181.415 60.3289C207.178 60.3289 235.519 65.6592 261.579 76.7204C265.515 78.3926 268.808 74.1424 264.958 71.2856Z" fill="#FF9900"/>
<path d="M274.626 82.3468C271.664 86.1442 254.977 84.141 247.486 83.2526C245.205 82.9739 244.856 84.9597 246.912 86.3881C260.202 95.7422 282.011 93.0422 284.555 89.9068C287.098 86.7539 283.893 64.8928 271.403 54.4586C269.487 52.8561 267.658 53.7096 268.511 55.8348C271.316 62.8373 277.604 78.532 274.626 82.3468Z" fill="#FF9900"/>
</g>
</svg>
