<svg viewBox="0 0 362 128" fill="none" xmlns="http://www.w3.org/2000/svg">
<path d="M264.958 89.2856C241.703 72.1451 207.997 63 178.977 63C138.285 63 101.653 78.0502 73.9386 103.082C71.7612 105.05 73.7122 107.733 76.3251 106.2C106.234 88.7979 143.215 78.3289 181.415 78.3289C207.178 78.3289 235.519 83.6592 261.579 94.7204C265.515 96.3926 268.808 92.1424 264.958 89.2856Z" fill="#FF9900"/>
<path d="M274.626 100.347C271.664 104.144 254.977 102.141 247.486 101.253C245.205 100.974 244.856 102.96 246.912 104.388C260.202 113.742 282.011 111.042 284.555 107.907C287.098 104.754 283.893 82.8928 271.403 72.4586C269.487 70.8561 267.658 71.7096 268.511 73.8348C271.316 80.8373 277.604 96.532 274.626 100.347Z" fill="#FF9900"/>
<path d="M27.9489 112.318C23.4943 112.318 19.5246 111.545 16.0398 110C12.5549 108.424 9.79735 106.106 7.76705 103.045C5.76705 99.9545 4.76705 96.1061 4.76705 91.5C4.76705 87.6212 5.47917 84.3636 6.90341 81.7273C8.32765 79.0909 10.267 76.9697 12.7216 75.3636C15.1761 73.7576 17.964 72.5455 21.0852 71.7273C24.2367 70.9091 27.5398 70.3333 30.9943 70C35.0549 69.5758 38.3277 69.1818 40.8125 68.8182C43.2974 68.4242 45.1004 67.8485 46.2216 67.0909C47.3428 66.3333 47.9034 65.2121 47.9034 63.7273V63.4545C47.9034 60.5758 46.9943 58.3485 45.1761 56.7727C43.3883 55.197 40.8428 54.4091 37.5398 54.4091C34.0549 54.4091 31.2822 55.1818 29.2216 56.7273C27.161 58.2424 25.7973 60.1515 25.1307 62.4545L7.22159 61C8.13068 56.7576 9.91856 53.0909 12.5852 50C15.2519 46.8788 18.6913 44.4848 22.9034 42.8182C27.1458 41.1212 32.0549 40.2727 37.6307 40.2727C41.5095 40.2727 45.2216 40.7273 48.767 41.6364C52.3428 42.5455 55.5095 43.9545 58.267 45.8636C61.0549 47.7727 63.2519 50.2273 64.858 53.2273C66.464 56.197 67.267 59.7576 67.267 63.9091V111H48.9034V101.318H48.358C47.2367 103.5 45.7367 105.424 43.858 107.091C41.9792 108.727 39.7216 110.015 37.0852 110.955C34.4489 111.864 31.4034 112.318 27.9489 112.318ZM33.4943 98.9545C36.3428 98.9545 38.858 98.3939 41.0398 97.2727C43.2216 96.1212 44.9337 94.5758 46.1761 92.6364C47.4186 90.697 48.0398 88.5 48.0398 86.0455V78.6364C47.4337 79.0303 46.6004 79.3939 45.5398 79.7273C44.5095 80.0303 43.3428 80.3182 42.0398 80.5909C40.7367 80.8333 39.4337 81.0606 38.1307 81.2727C36.8277 81.4545 35.6458 81.6212 34.5852 81.7727C32.3125 82.1061 30.3277 82.6364 28.6307 83.3636C26.9337 84.0909 25.6155 85.0758 24.6761 86.3182C23.7367 87.5303 23.267 89.0455 23.267 90.8636C23.267 93.5 24.2216 95.5152 26.1307 96.9091C28.0701 98.2727 30.5246 98.9545 33.4943 98.9545ZM82.2898 111V41.1818H101.062V53.3636H101.79C103.063 49.0303 105.199 45.7576 108.199 43.5455C111.199 41.303 114.653 40.1818 118.562 40.1818C119.532 40.1818 120.578 40.2424 121.699 40.3636C122.82 40.4848 123.805 40.6515 124.653 40.8636V58.0455C123.744 57.7727 122.487 57.5303 120.881 57.3182C119.275 57.1061 117.805 57 116.472 57C113.623 57 111.078 57.6212 108.835 58.8636C106.623 60.0758 104.866 61.7727 103.562 63.9545C102.29 66.1364 101.653 68.6515 101.653 71.5V111H82.2898ZM134.665 111V41.1818H153.438V53.3636H154.165C155.438 49.0303 157.574 45.7576 160.574 43.5455C163.574 41.303 167.028 40.1818 170.938 40.1818C171.907 40.1818 172.953 40.2424 174.074 40.3636C175.195 40.4848 176.18 40.6515 177.028 40.8636V58.0455C176.119 57.7727 174.862 57.5303 173.256 57.3182C171.65 57.1061 170.18 57 168.847 57C165.998 57 163.453 57.6212 161.21 58.8636C158.998 60.0758 157.241 61.7727 155.938 63.9545C154.665 66.1364 154.028 68.6515 154.028 71.5V111H134.665ZM215.335 112.364C208.275 112.364 202.169 110.864 197.017 107.864C191.896 104.833 187.941 100.621 185.153 95.2273C182.366 89.803 180.972 83.5152 180.972 76.3636C180.972 69.1515 182.366 62.8485 185.153 57.4545C187.941 52.0303 191.896 47.8182 197.017 44.8182C202.169 41.7879 208.275 40.2727 215.335 40.2727C222.396 40.2727 228.487 41.7879 233.608 44.8182C238.759 47.8182 242.729 52.0303 245.517 57.4545C248.305 62.8485 249.699 69.1515 249.699 76.3636C249.699 83.5152 248.305 89.803 245.517 95.2273C242.729 100.621 238.759 104.833 233.608 107.864C228.487 110.864 222.396 112.364 215.335 112.364ZM215.426 97.3636C218.638 97.3636 221.32 96.4545 223.472 94.6364C225.623 92.7879 227.244 90.2727 228.335 87.0909C229.456 83.9091 230.017 80.2879 230.017 76.2273C230.017 72.1667 229.456 68.5455 228.335 65.3636C227.244 62.1818 225.623 59.6667 223.472 57.8182C221.32 55.9697 218.638 55.0455 215.426 55.0455C212.184 55.0455 209.456 55.9697 207.244 57.8182C205.063 59.6667 203.411 62.1818 202.29 65.3636C201.199 68.5455 200.653 72.1667 200.653 76.2273C200.653 80.2879 201.199 83.9091 202.29 87.0909C203.411 90.2727 205.063 92.7879 207.244 94.6364C209.456 96.4545 212.184 97.3636 215.426 97.3636ZM274.312 111L255.312 41.1818H274.903L285.722 88.0909H286.358L297.631 41.1818H316.858L328.312 87.8182H328.903L339.54 41.1818H359.085L340.131 111H319.631L307.631 67.0909H306.767L294.767 111H274.312Z" fill="white"/>
<mask id="mask0_37_17" style="mask-type:alpha" maskUnits="userSpaceOnUse" x="167" y="51" width="134" height="74">
<rect x="260" y="65" width="41" height="60" fill="#D9D9D9"/>
<rect x="167" y="51" width="49" height="40" fill="#D9D9D9"/>
</mask>
<g mask="url(#mask0_37_17)">
<path d="M264.958 89.2856C241.703 72.1451 207.997 63 178.977 63C138.285 63 101.653 78.0502 73.9386 103.082C71.7612 105.05 73.7122 107.733 76.3251 106.2C106.234 88.7979 143.215 78.3289 181.415 78.3289C207.178 78.3289 235.519 83.6592 261.579 94.7204C265.515 96.3926 268.808 92.1424 264.958 89.2856Z" fill="#FF9900"/>
<path d="M274.626 100.347C271.664 104.144 254.977 102.141 247.486 101.253C245.205 100.974 244.856 102.96 246.912 104.388C260.202 113.742 282.011 111.042 284.555 107.907C287.098 104.754 283.893 82.8928 271.403 72.4586C269.487 70.8561 267.658 71.7096 268.511 73.8348C271.316 80.8373 277.604 96.532 274.626 100.347Z" fill="#FF9900"/>
</g>
</svg>
