<svg viewBox="0 0 399 155" fill="none" xmlns="http://www.w3.org/2000/svg">
<path d="M27.6364 125.318C23.1818 125.318 19.2121 124.545 15.7273 123C12.2424 121.424 9.48485 119.106 7.45455 116.045C5.45455 112.955 4.45455 109.106 4.45455 104.5C4.45455 100.621 5.16667 97.3636 6.59091 94.7273C8.01515 92.0909 9.95455 89.9697 12.4091 88.3636C14.8636 86.7576 17.6515 85.5455 20.7727 84.7273C23.9242 83.9091 27.2273 83.3333 30.6818 83C34.7424 82.5758 38.0152 82.1818 40.5 81.8182C42.9849 81.4242 44.7879 80.8485 45.9091 80.0909C47.0303 79.3333 47.5909 78.2121 47.5909 76.7273V76.4545C47.5909 73.5758 46.6818 71.3485 44.8636 69.7727C43.0758 68.197 40.5303 67.4091 37.2273 67.4091C33.7424 67.4091 30.9697 68.1818 28.9091 69.7273C26.8485 71.2424 25.4848 73.1515 24.8182 75.4545L6.90909 74C7.81818 69.7576 9.60606 66.0909 12.2727 63C14.9394 59.8788 18.3788 57.4848 22.5909 55.8182C26.8333 54.1212 31.7424 53.2727 37.3182 53.2727C41.197 53.2727 44.9091 53.7273 48.4545 54.6364C52.0303 55.5455 55.197 56.9545 57.9545 58.8636C60.7424 60.7727 62.9394 63.2273 64.5455 66.2273C66.1515 69.197 66.9545 72.7576 66.9545 76.9091V124H48.5909V114.318H48.0455C46.9242 116.5 45.4242 118.424 43.5455 120.091C41.6667 121.727 39.4091 123.015 36.7727 123.955C34.1364 124.864 31.0909 125.318 27.6364 125.318ZM33.1818 111.955C36.0303 111.955 38.5455 111.394 40.7273 110.273C42.9091 109.121 44.6212 107.576 45.8636 105.636C47.1061 103.697 47.7273 101.5 47.7273 99.0455V91.6364C47.1212 92.0303 46.2879 92.3939 45.2273 92.7273C44.197 93.0303 43.0303 93.3182 41.7273 93.5909C40.4242 93.8333 39.1212 94.0606 37.8182 94.2727C36.5152 94.4545 35.3333 94.6212 34.2727 94.7727C32 95.1061 30.0152 95.6364 28.3182 96.3636C26.6212 97.0909 25.303 98.0758 24.3636 99.3182C23.4242 100.53 22.9545 102.045 22.9545 103.864C22.9545 106.5 23.9091 108.515 25.8182 109.909C27.7576 111.273 30.2121 111.955 33.1818 111.955ZM119.114 54.1818V68.7273H77.0682V54.1818H119.114ZM86.6136 37.4545H105.977V102.545C105.977 104.333 106.25 105.727 106.795 106.727C107.341 107.697 108.098 108.379 109.068 108.773C110.068 109.167 111.22 109.364 112.523 109.364C113.432 109.364 114.341 109.288 115.25 109.136C116.159 108.955 116.856 108.818 117.341 108.727L120.386 123.136C119.417 123.439 118.053 123.788 116.295 124.182C114.538 124.606 112.402 124.864 109.886 124.955C105.22 125.136 101.129 124.515 97.6136 123.091C94.1288 121.667 91.4167 119.455 89.4773 116.455C87.5379 113.455 86.5833 109.667 86.6136 105.091V37.4545ZM162.795 125.364C155.614 125.364 149.432 123.909 144.25 121C139.098 118.061 135.129 113.909 132.341 108.545C129.553 103.152 128.159 96.7727 128.159 89.4091C128.159 82.2273 129.553 75.9242 132.341 70.5C135.129 65.0758 139.053 60.8485 144.114 57.8182C149.205 54.7879 155.174 53.2727 162.023 53.2727C166.629 53.2727 170.917 54.0152 174.886 55.5C178.886 56.9545 182.371 59.1515 185.341 62.0909C188.341 65.0303 190.674 68.7273 192.341 73.1818C194.008 77.6061 194.841 82.7879 194.841 88.7273V94.0455H135.886V82.0455H176.614C176.614 79.2576 176.008 76.7879 174.795 74.6364C173.583 72.4848 171.902 70.803 169.75 69.5909C167.629 68.3485 165.159 67.7273 162.341 67.7273C159.402 67.7273 156.795 68.4091 154.523 69.7727C152.28 71.1061 150.523 72.9091 149.25 75.1818C147.977 77.4242 147.326 79.9242 147.295 82.6818V94.0909C147.295 97.5455 147.932 100.53 149.205 103.045C150.508 105.561 152.341 107.5 154.705 108.864C157.068 110.227 159.871 110.909 163.114 110.909C165.265 110.909 167.235 110.606 169.023 110C170.811 109.394 172.341 108.485 173.614 107.273C174.886 106.061 175.856 104.576 176.523 102.818L194.432 104C193.523 108.303 191.659 112.061 188.841 115.273C186.053 118.455 182.447 120.939 178.023 122.727C173.629 124.485 168.553 125.364 162.795 125.364ZM226.841 30.9091V124H207.477V30.9091H226.841ZM242.352 124V54.1818H261.716V124H242.352ZM252.08 45.1818C249.201 45.1818 246.731 44.2273 244.67 42.3182C242.64 40.3788 241.625 38.0606 241.625 35.3636C241.625 32.697 242.64 30.4091 244.67 28.5C246.731 26.5606 249.201 25.5909 252.08 25.5909C254.958 25.5909 257.413 26.5606 259.443 28.5C261.504 30.4091 262.534 32.697 262.534 35.3636C262.534 38.0606 261.504 40.3788 259.443 42.3182C257.413 44.2273 254.958 45.1818 252.08 45.1818ZM309.045 125.364C301.864 125.364 295.682 123.909 290.5 121C285.348 118.061 281.379 113.909 278.591 108.545C275.803 103.152 274.409 96.7727 274.409 89.4091C274.409 82.2273 275.803 75.9242 278.591 70.5C281.379 65.0758 285.303 60.8485 290.364 57.8182C295.455 54.7879 301.424 53.2727 308.273 53.2727C312.879 53.2727 317.167 54.0152 321.136 55.5C325.136 56.9545 328.621 59.1515 331.591 62.0909C334.591 65.0303 336.924 68.7273 338.591 73.1818C340.258 77.6061 341.091 82.7879 341.091 88.7273V94.0455H282.136V82.0455H322.864C322.864 79.2576 322.258 76.7879 321.045 74.6364C319.833 72.4848 318.152 70.803 316 69.5909C313.879 68.3485 311.409 67.7273 308.591 67.7273C305.652 67.7273 303.045 68.4091 300.773 69.7727C298.53 71.1061 296.773 72.9091 295.5 75.1818C294.227 77.4242 293.576 79.9242 293.545 82.6818V94.0909C293.545 97.5455 294.182 100.53 295.455 103.045C296.758 105.561 298.591 107.5 300.955 108.864C303.318 110.227 306.121 110.909 309.364 110.909C311.515 110.909 313.485 110.606 315.273 110C317.061 109.394 318.591 108.485 319.864 107.273C321.136 106.061 322.106 104.576 322.773 102.818L340.682 104C339.773 108.303 337.909 112.061 335.091 115.273C332.303 118.455 328.697 120.939 324.273 122.727C319.879 124.485 314.803 125.364 309.045 125.364ZM353.727 124V54.1818H372.5V66.3636H373.227C374.5 62.0303 376.636 58.7576 379.636 56.5455C382.636 54.303 386.091 53.1818 390 53.1818C390.97 53.1818 392.015 53.2424 393.136 53.3636C394.258 53.4848 395.242 53.6515 396.091 53.8636V71.0455C395.182 70.7727 393.924 70.5303 392.318 70.3182C390.712 70.1061 389.242 70 387.909 70C385.061 70 382.515 70.6212 380.273 71.8636C378.061 73.0758 376.303 74.7727 375 76.9545C373.727 79.1364 373.091 81.6515 373.091 84.5V124H353.727Z" fill="white"/>
<path d="M325.958 26.2856C302.703 9.1451 268.997 -1.51906e-06 239.977 -1.51906e-06C199.285 -1.51906e-06 162.653 15.0502 134.939 40.0817C132.761 42.05 134.712 44.7326 137.325 43.1997C167.234 25.7979 204.215 15.3289 242.415 15.3289C268.178 15.3289 296.519 20.6592 322.579 31.7204C326.515 33.3927 329.808 29.1424 325.958 26.2856Z" fill="#FF9900"/>
<path d="M335.626 37.3468C332.664 41.1442 315.977 39.141 308.486 38.2526C306.205 37.9739 305.856 39.9597 307.912 41.3881C321.202 50.7422 343.011 48.0422 345.555 44.9068C348.098 41.7539 344.893 19.8928 332.403 9.45865C330.487 7.85608 328.658 8.7096 329.511 10.8348C332.316 17.8373 338.604 33.532 335.626 37.3468Z" fill="#FF9900"/>
</svg>
