<svg width="24" height="24" viewBox="0 0 24 24" fill="none" xmlns="http://www.w3.org/2000/svg">
<path d="M13.6923 2.69231C13.6923 1.75625 12.9361 1 12 1C11.0639 1 10.3077 1.75625 10.3077 2.69231V10.3077H2.69231C1.75625 10.3077 1 11.0639 1 12C1 12.9361 1.75625 13.6923 2.69231 13.6923H10.3077V21.3077C10.3077 22.2437 11.0639 23 12 23C12.9361 23 13.6923 22.2437 13.6923 21.3077V13.6923H21.3077C22.2437 13.6923 23 12.9361 23 12C23 11.0639 22.2437 10.3077 21.3077 10.3077H13.6923V2.69231Z" fill="black" stroke="white"/>
</svg>
